<?xml version="1.0" encoding="UTF-8" standalone="no"?>
<svg 
    role="img" 
    xmlns="http://www.w3.org/2000/svg" 
    width="1000mm"
    height="1000mm"
    viewBox="0 0 1000 1000"
    style="max-width:1.6em; height: auto;">
    
    <path 
        id="path" 
        style="opacity:1;vector-effect:none;fill:#BF7B6B;fill-opacity:1;"
        d=" M 606 211C 565 241 524 271 483 301 483 301 505 318 522 335 499 374 457 405 409 430 362 449 290 444 243 425 241 406 241 388 241 369 199 369 157 368 114 368 113 382 111 419 114 476 128 527 128 579 125 626 106 581 85 539 106 478 103 421 106 383 107 368 102 368 97 368 92 368 91 366 91 364 90 363 281 252 382 233 604 205 605 207 605 209 606 211ZM 809 356C 846 383 865 423 865 476 865 562 865 648 865 734 823 734 782 734 741 734 741 653 741 572 741 491 741 440 720 415 678 415 636 414 615 440 615 491 615 572 615 653 615 734 574 734 532 734 491 734 491 653 491 572 491 491 491 462 484 442 471 429 475 426 480 423 484 419 508 401 531 379 545 355 548 357 550 360 553 363 576 334 617 319 678 319 733 319 777 332 809 356ZM 368 470C 367 476 366 483 366 491 366 572 366 653 366 734 325 734 284 734 242 734 242 648 242 562 242 476 242 470 243 463 243 457 281 470 325 475 368 470Z"
        transform="">
    </path>    
</svg>